<svg xmlns="http://www.w3.org/2000/svg" width="150" height="50" viewBox="0,0,150,50">
  <path d="M3 47 C83 8,64 1,144 33" stroke="#888" fill="none"/>
  <path fill="#111" d="M20.49 47.03L20.49 47.03L20.45 46.99Q19.65 47.34 17.75 47.64L17.63 47.52L17.64 47.53Q18.89 45.31 19.91 44.02L20.00 44.11L19.91 44.02Q21.72 44.38 21.87 44.38L21.97 44.48L21.91 44.42Q22.23 44.51 22.76 44.39L22.81 44.43L22.81 44.44Q23.46 44.33 23.65 44.33L23.62 44.30L23.69 44.37Q26.22 44.08 26.14 41.91L26.05 41.82L26.20 41.96Q26.14 40.46 26.03 34.22L25.99 34.18L25.92 34.11Q25.95 30.64 26.02 26.49L25.93 26.40L27.30 26.17L27.49 26.35Q28.10 26.20 28.78 25.97L28.72 25.91L28.65 25.84Q28.59 30.43 28.63 34.81L28.58 34.75L28.47 34.64Q28.54 39.06 29.07 43.43L29.08 43.44L29.14 43.50Q29.10 43.69 29.10 43.95L29.11 43.96L29.13 43.98Q29.12 45.61 27.45 46.00L27.44 45.98L27.53 46.08Q24.30 46.35 20.45 46.99ZM27.23 22.79L25.23 19.79L25.21 19.77Q26.19 18.31 28.02 15.54L27.94 15.46L28.06 15.58Q28.78 16.52 30.11 18.35L30.14 18.38L27.24 22.80ZM30.24 49.39L30.30 49.46L30.36 49.52Q30.85 49.51 31.61 49.17L31.67 49.23L31.60 49.15Q31.90 48.43 31.90 47.97L31.89 47.96L31.87 47.94Q31.96 47.69 31.84 47.08L31.80 47.04L31.74 46.97Q30.49 40.66 30.49 32.74L30.48 32.73L30.45 32.70Q30.38 29.77 30.53 26.88L30.63 26.98L30.68 27.03Q30.19 27.27 29.05 27.57L28.86 27.38L28.91 27.43Q29.01 27.04 29.05 26.50L28.90 26.35L29.15 25.42L29.18 25.46Q27.42 26.06 25.63 26.10L25.69 26.16L25.63 26.10Q25.48 30.32 25.52 33.90L25.54 33.92L25.65 41.76L25.68 41.79Q25.84 43.85 23.67 43.97L23.60 43.89L23.55 43.85Q23.33 43.86 22.82 43.91L22.93 44.02L22.89 43.99Q22.46 44.13 22.20 44.13L22.17 44.11L22.11 44.04Q21.69 44.08 20.13 43.66L20.01 43.54L20.06 43.59Q19.51 44.11 18.41 45.78L18.50 45.88L16.88 48.10L16.90 48.13Q17.86 48.02 19.50 47.64L19.51 47.65L18.92 48.24L18.49 48.99L18.48 48.98Q20.86 48.92 22.19 49.00L22.14 48.95L22.04 48.84Q24.46 49.14 30.40 49.56ZM27.22 23.54L27.19 23.50L27.61 23.05L27.60 23.04Q28.05 23.57 29.00 25.17L28.96 25.12L29.03 25.19Q30.38 21.89 31.94 18.81L32.13 19.00L32.10 18.97Q31.04 17.30 30.09 16.01L30.19 16.11L30.14 16.06Q29.92 16.26 29.58 16.79L29.60 16.81L29.54 16.75Q29.05 16.04 28.06 14.75L28.20 14.88L28.17 14.86Q27.05 16.51 24.72 19.86L24.63 19.77L24.68 19.82Q25.62 21.06 27.33 23.65Z"/>
  <path fill="#111" d="M107.35 14.27L107.44 14.36L107.38 14.30Q111.28 16.94 116.03 17.17L115.93 17.07L115.89 17.02Q120.62 17.30 124.88 15.55L124.88 15.55L124.77 15.44Q124.62 16.09 123.86 18.87L123.73 18.74L123.92 18.93Q121.16 19.93 118.19 20.09L118.13 20.03L118.09 19.98Q115.24 20.26 112.34 19.53L112.32 19.51L112.25 19.44Q113.02 23.14 113.21 26.80L113.13 26.72L113.09 26.67Q115.14 26.94 116.74 26.90L116.80 26.96L116.78 26.94Q118.04 26.98 120.44 26.87L120.37 26.80L120.41 26.84Q120.24 27.36 120.24 28.04L120.29 28.09L120.40 29.53L120.24 29.37Q117.93 29.46 113.13 29.53L113.15 29.55L113.11 29.51Q113.09 33.60 112.52 37.60L112.64 37.72L112.61 37.69Q115.28 37.09 118.02 37.20L117.86 37.04L117.98 37.17Q120.63 37.18 123.22 38.02L123.22 38.03L123.13 37.93Q123.34 38.87 123.61 39.63L123.58 39.60L124.06 41.15L123.97 41.06Q120.75 39.74 117.32 39.74L117.48 39.89L117.45 39.87Q112.48 39.77 108.21 42.01L108.18 41.98L108.22 42.02Q110.61 35.28 110.35 28.16L110.40 28.21L110.40 28.21Q110.08 21.00 107.41 14.33ZM107.84 42.86L107.66 42.68L107.80 42.82Q109.04 42.08 109.80 41.74L109.87 41.80L109.85 41.79Q109.59 42.47 109.02 44.00L109.08 44.06L108.99 43.97Q113.64 42.11 118.71 42.38L118.58 42.25L118.62 42.30Q123.75 42.55 127.75 45.25L127.78 45.29L127.80 45.31Q126.60 42.74 125.92 40.80L125.84 40.72L125.98 40.86Q124.90 40.16 123.91 39.82L124.02 39.93L123.97 39.88Q123.47 38.39 123.32 37.59L123.36 37.63L123.42 37.69Q120.23 36.59 117.07 36.59L117.23 36.76L117.12 36.65Q115.97 36.64 114.83 36.75L114.78 36.71L114.88 36.80Q114.94 35.49 114.97 34.27L115.07 34.37L115.02 31.73L115.10 31.81Q116.89 31.69 118.68 31.73L118.66 31.72L118.79 31.84Q120.65 31.91 122.44 32.06L122.39 32.02L122.35 31.98Q122.35 31.10 122.35 30.14L122.24 30.04L122.30 28.19L121.52 28.29L121.46 28.23Q121.08 28.35 120.62 28.35L120.62 28.35L120.58 28.30Q120.57 27.61 120.72 26.31L120.67 26.26L120.72 26.31Q119.11 26.53 117.93 26.57L118.06 26.69L117.91 26.55Q116.96 26.55 115.13 26.47L115.12 26.46L115.28 26.62Q115.20 25.20 115.01 22.39L114.95 22.34L114.94 22.32Q115.92 22.39 116.91 22.39L116.90 22.37L116.94 22.41Q121.64 22.40 125.34 20.50L125.43 20.59L125.44 20.60Q125.92 18.15 126.80 15.95L126.81 15.96L126.75 15.90Q125.39 16.71 124.56 17.05L124.60 17.10L124.71 17.21Q124.96 16.39 125.42 14.83L125.34 14.75L125.43 14.84Q120.65 16.84 115.78 16.53L115.82 16.58L115.85 16.60Q110.61 16.35 106.77 13.50L106.74 13.48L106.67 13.40Q109.54 20.35 109.85 27.96L110.02 28.14L109.86 27.97Q110.24 35.97 107.73 42.75Z"/>
  <path fill="#222" d="M81.89 32.88L81.95 32.94L81.87 32.86Q85.12 32.65 88.32 32.76L88.32 32.76L88.28 32.73Q88.28 30.21 88.28 27.81L88.31 27.84L88.29 27.82Q88.26 25.31 88.45 22.76L88.45 22.77L88.46 22.77Q87.20 24.45 81.99 32.98ZM91.91 40.35L91.84 40.28L91.84 40.28Q90.12 39.93 88.33 39.85L88.35 39.88L88.48 40.00Q88.19 37.54 88.07 35.06L88.10 35.09L88.08 35.08Q82.85 34.98 78.13 36.39L78.00 36.26L78.07 36.33Q78.20 35.85 78.39 34.86L78.38 34.85L78.37 34.84Q80.15 31.67 83.72 25.39L83.67 25.33L83.66 25.32Q86.65 20.55 90.08 16.66L89.97 16.56L89.97 16.56Q90.89 16.41 92.57 16.15L92.68 16.26L92.69 16.27Q90.69 22.60 90.69 29.65L90.67 29.63L90.77 29.73Q90.73 31.18 90.81 32.66L90.75 32.61L92.14 32.81L92.11 32.78Q92.68 32.79 93.29 32.90L93.23 32.84L93.30 32.91Q93.35 33.83 93.61 35.77L93.71 35.87L93.70 35.86Q92.47 35.58 90.99 35.39L91.00 35.41L91.04 35.45Q91.14 37.33 91.83 40.27ZM93.62 32.58L93.46 32.42L93.60 32.56Q93.35 32.43 93.16 32.43L93.14 32.41L92.70 32.35L92.72 32.37Q92.75 31.02 92.75 29.61L92.57 29.43L92.59 29.46Q92.62 23.09 94.67 17.07L94.70 17.10L94.66 17.06Q94.02 17.44 92.57 17.82L92.56 17.81L92.53 17.78Q92.65 16.91 93.11 15.51L93.15 15.55L93.21 15.61Q91.90 15.97 89.84 16.20L89.94 16.30L89.80 16.15Q85.84 20.46 80.62 29.82L80.63 29.83L82.79 26.24L82.72 26.17Q82.48 27.37 82.21 27.95L82.13 27.87L77.75 36.97L77.68 36.89Q78.34 36.75 79.48 36.37L79.41 36.30L79.25 36.52L79.31 36.58Q79.17 37.24 78.87 38.50L78.91 38.54L78.79 38.42Q83.05 37.24 87.88 37.43L87.79 37.33L87.75 37.30Q87.90 38.36 88.10 40.34L88.06 40.30L88.10 40.35Q89.04 40.22 90.11 40.34L90.22 40.45L90.14 40.37Q90.39 41.15 90.66 42.52L90.68 42.55L90.64 42.51Q92.46 42.65 95.47 43.56L95.43 43.53L95.44 43.54Q94.54 41.49 93.62 38.22L93.55 38.14L95.13 38.74L94.98 38.58Q95.74 38.88 96.42 39.23L96.46 39.26L96.51 39.32Q95.64 36.73 95.48 35.05L95.44 35.01L95.56 35.13Q94.89 34.88 93.75 34.65L93.84 34.74L93.69 34.60Q93.49 33.33 93.49 32.45ZM85.52 32.33L85.62 32.42L85.50 32.30Q86.40 31.15 87.96 28.60L87.79 28.42L87.79 28.43Q87.90 29.49 87.86 30.44L87.82 30.39L87.89 30.47Q87.90 31.47 87.94 32.42L87.88 32.36L87.86 32.34Q87.26 32.28 86.69 32.28L86.74 32.32L86.80 32.39Q86.14 32.33 85.53 32.33Z"/>
  <path fill="#333" d="M56.16 29.06L56.15 29.05L56.20 29.10Q54.33 28.94 53.09 30.37L53.22 30.50L53.19 30.47Q51.89 31.84 51.70 33.74L51.73 33.76L51.79 33.82Q51.41 35.73 52.49 36.70L52.61 36.82L52.64 36.84Q53.69 37.78 55.78 37.67L55.72 37.60L55.71 37.60Q57.83 37.47 58.94 36.78L59.00 36.84L58.86 36.71Q60.13 35.73 60.13 34.17L60.09 34.13L60.06 34.10Q60.03 33.69 59.96 33.31L60.09 33.45L59.98 33.34Q60.10 31.71 59.00 30.36L58.97 30.32L59.04 30.40Q57.83 28.94 56.15 29.05ZM55.74 40.17L55.87 40.30L55.86 40.29Q51.34 40.15 49.93 39.39L50.06 39.52L50.06 39.52Q48.97 38.69 48.78 36.98L48.78 36.98L48.87 37.07Q48.80 36.36 48.84 35.63L48.85 35.64L48.88 35.68Q49.00 34.69 49.00 34.23L48.83 34.07L48.83 34.06Q49.35 31.28 49.51 30.59L49.59 30.68L49.44 30.53Q49.88 28.57 50.72 27.16L50.82 27.26L50.72 27.16Q53.52 22.92 59.46 16.56L59.44 16.54L59.39 16.49Q62.14 16.27 64.35 15.47L64.20 15.32L64.20 15.33Q57.44 22.88 54.24 27.10L54.31 27.17L54.29 27.15Q55.16 26.54 56.46 26.54L56.61 26.70L56.46 26.55Q59.75 26.52 61.27 28.46L61.43 28.62L61.34 28.53Q62.77 30.26 63.11 33.80L62.97 33.66L62.96 33.65Q63.16 34.50 63.16 35.11L63.13 35.07L63.10 35.05Q63.02 38.09 60.82 39.16L60.96 39.30L60.92 39.26Q59.63 39.80 55.75 40.18ZM58.12 42.67L58.11 42.66L58.09 42.64Q59.33 42.55 61.31 42.62L61.34 42.65L61.29 42.61Q62.96 42.71 64.52 41.99L64.54 42.01L64.55 42.01Q65.66 41.22 65.66 39.43L65.72 39.49L65.65 39.42Q65.72 39.00 65.55 38.01L65.43 37.89L65.44 37.90Q65.25 36.89 65.25 36.43L65.35 36.53L65.40 36.59Q64.47 31.81 62.87 29.91L62.89 29.92L62.84 29.87Q62.85 29.85 62.70 29.63L62.68 29.61L62.27 29.27L62.27 29.30L62.32 29.36Q61.97 28.85 61.36 27.90L61.24 27.79L61.19 27.73Q60.34 26.85 58.36 26.39L58.38 26.40L58.29 26.32Q59.68 24.88 62.64 21.19L62.52 21.07L66.71 15.74L66.83 15.86Q65.17 16.64 62.78 17.40L62.86 17.48L62.84 17.46Q63.69 16.41 65.48 14.43L65.60 14.55L65.57 14.52Q63.19 15.61 59.31 16.18L59.31 16.18L59.19 16.07Q53.62 22.10 50.65 27.05L50.51 26.91L50.67 27.07Q49.14 29.58 48.57 35.82L48.56 35.81L48.49 35.75Q48.38 36.28 48.46 37.24L48.51 37.28L48.41 37.19Q48.57 39.02 49.67 39.93L49.63 39.89L49.75 40.01Q50.01 40.04 49.97 40.08L49.93 40.04L49.95 40.06Q50.33 40.97 51.13 41.39L51.24 41.50L51.20 41.45Q52.59 42.08 54.53 42.27L54.61 42.36L54.64 42.38Q54.67 42.42 58.17 42.72ZM57.87 31.42L57.77 31.31L57.80 31.35Q58.43 31.29 59.38 31.79L59.44 31.84L59.29 31.70Q59.79 32.81 59.79 33.45L59.79 33.45L59.67 33.33Q59.97 35.30 59.02 36.29L58.98 36.26L58.98 36.26Q57.99 37.05 55.89 37.36L55.77 37.23L55.87 37.33Q54.36 37.28 53.83 37.01L53.72 36.90L53.81 36.99Q53.53 36.44 53.53 36.14L53.62 36.23L53.53 36.14Q53.34 32.90 56.27 31.61L56.37 31.70L56.35 31.69Q57.05 31.28 57.81 31.36Z"/>
</svg>
